<?xml version="1.0" encoding="utf-8"?>
<!-- Generator: Adobe Illustrator 24.3.0, SVG Export Plug-In . SVG Version: 6.00 Build 0)  -->
<svg version="1.1" id="Layer_1" xmlns="http://www.w3.org/2000/svg" xmlns:xlink="http://www.w3.org/1999/xlink" x="0px" y="0px"
	 viewBox="0 0 3000 1000" style="enable-background:new 0 0 3000 1000;" xml:space="preserve">
<style type="text/css">
	.st0{fill:none;}
	.st1{fill:#C22431;}
	.st2{fill:#FFFFFF;}
</style>
<g>
	<g>
		<path class="st0" d="M458.9,560.1c33.1,0,60.1-27,60.1-60.1c0-33.1-27-60.1-60.1-60.1c-33.1,0-60.1,27-60.1,60.1
			C398.8,533.1,425.7,560.1,458.9,560.1z"/>
		<path class="st1" d="M853.4,500c0-203.8-155.2-372-353.7-392.5v52.2C669.5,180,801.5,324.9,801.5,500
			c0,175.1-132.1,320-301.8,340.3v52.2C698.2,872,853.4,703.8,853.4,500z"/>
		<path class="st1" d="M116.2,500c0-177.5,135.6-323.8,308.6-341v-52.1C223.1,124.2,64.3,294,64.3,500s158.8,375.8,360.5,393.1V841
			C251.7,823.8,116.2,677.5,116.2,500z"/>
		<path d="M499.7,93v7.2v7.3C698.2,128,853.4,296.2,853.4,500S698.2,872,499.7,892.5v7.3v7.2c206.4-20.6,368.2-195.3,368.2-407
			C867.9,288.2,706.2,113.5,499.7,93z"/>
		<path d="M64.3,500c0-206,158.8-375.8,360.5-393.1v-7.3v-7.3C215.1,109.8,49.8,286,49.8,500s165.3,390.2,374.9,407.6v-7.3v-7.3
			C223.1,875.8,64.3,706,64.3,500z"/>
		<path d="M801.5,500c0-175.1-132.1-320-301.8-340.3v7.3v7.3C661.5,194.5,787.1,332.8,787.1,500S661.5,805.5,499.7,825.7v7.3v7.3
			C669.5,820,801.5,675.1,801.5,500z"/>
		<path d="M130.7,500c0-169.5,129.1-309.3,294.1-326.4v-7.3V159c-173,17.1-308.6,163.5-308.6,341s135.6,323.8,308.6,341v-7.3v-7.3
			C259.7,809.3,130.7,669.5,130.7,500z"/>
		<path class="st1" d="M708.9,462.5c-18.2-121.7-123.4-215.4-250-215.4c-126.7,0-231.9,93.7-250.1,215.4H272
			c17.5-87.2,94.6-153.1,186.9-153.1c92.3,0,169.4,65.9,186.9,153.1H708.9z M458.9,309.4c-92.3,0-169.4,65.9-186.9,153.1h-7.4h-7.3
			c17.7-95.2,101.3-167.6,201.6-167.6c100.3,0,184,72.4,201.6,167.6h-7.3h-7.4C628.3,375.3,551.1,309.4,458.9,309.4z"/>
		<path class="st1" d="M458.9,752.9c126.7,0,231.9-93.7,250-215.4h-48.4c-17.7,95.2-101.4,167.6-201.6,167.6
			c-100.3,0-184-72.4-201.6-167.6h-48.4C227,659.2,332.2,752.9,458.9,752.9z"/>
		<path d="M723.5,537.5h-7.3h-7.3c-18.2,121.7-123.4,215.4-250,215.4c-126.7,0-231.9-93.7-250.1-215.4h-7.3h-7.3
			c18.3,129.7,130,229.8,264.7,229.8S705.3,667.2,723.5,537.5z"/>
		<path d="M458.9,247.1c126.7,0,231.9,93.7,250,215.4h7.3h7.3c-18.3-129.7-130-229.8-264.7-229.8S212.5,332.8,194.2,462.5h7.3h7.3
			C227,340.8,332.2,247.1,458.9,247.1z"/>
		<path class="st1" d="M518.9,500c0,33.1-27,60.1-60.1,60.1c-33.1,0-60.1-27-60.1-60.1v0c0,33.1,27,60.1,60.1,60.1
			C492,560.1,518.9,533.1,518.9,500L518.9,500z"/>
		<path class="st1" d="M458.9,364c-75,0-136,61-136,136v0C322.9,425,383.9,364,458.9,364c75,0,136,61,136,136v0
			C594.8,425,533.8,364,458.9,364z"/>
		<path d="M458.9,705.1c100.3,0,184-72.4,201.6-167.6v0h-7.3h-7.4c-17.5,87.2-94.6,153.1-186.9,153.1
			c-92.3,0-169.4-65.9-186.9-153.1h-7.4h-7.3v0C274.9,632.7,358.6,705.1,458.9,705.1z"/>
		<path d="M653.2,462.5h7.3c-17.7-95.2-101.4-167.6-201.6-167.6c-100.3,0-184,72.4-201.6,167.6h7.3h7.4
			c17.5-87.2,94.6-153.1,186.9-153.1c92.3,0,169.4,65.9,186.9,153.1H653.2z"/>
		<path class="st1" d="M458.9,378.5c-67,0-121.5,54.5-121.5,121.5s54.5,121.5,121.5,121.5S580.4,567,580.4,500
			S525.9,378.5,458.9,378.5z M458.9,574.6c-41.1,0-74.6-33.5-74.6-74.6s33.5-74.6,74.6-74.6s74.5,33.5,74.5,74.6
			S500,574.6,458.9,574.6z"/>
		<path d="M458.9,364c-75,0-136,61-136,136l0,0c0,75,61,136,136,136c75,0,136-61,136-136l0,0C594.8,425,533.8,364,458.9,364z
			 M458.9,621.5c-67,0-121.5-54.5-121.5-121.5s54.5-121.5,121.5-121.5S580.4,433,580.4,500S525.9,621.5,458.9,621.5z"/>
		<path d="M458.9,425.4c-41.1,0-74.6,33.5-74.6,74.6s33.5,74.6,74.6,74.6s74.5-33.5,74.5-74.6S500,425.4,458.9,425.4z M458.9,560.1
			c-33.1,0-60.1-27-60.1-60.1v0c0-33.1,27-60.1,60.1-60.1c33.1,0,60.1,27,60.1,60.1v0C518.9,533.1,492,560.1,458.9,560.1z"/>
	</g>
	<g>
		<path class="st1" d="M975.3,647.1h-29.7v-10.7h72.2v10.7H988v86.8h-12.7V647.1z"/>
		<path class="st1" d="M1021.7,685.7c0-8.2-0.1-15.3-0.6-21.8h11.1l0.4,13.7h0.6c3.2-9.4,10.9-15.3,19.4-15.3c1.4,0,2.5,0.1,3.6,0.4
			v12c-1.3-0.3-2.6-0.4-4.3-0.4c-9,0-15.3,6.8-17.1,16.4c-0.3,1.7-0.6,3.8-0.6,5.9v37.3h-12.6V685.7z"/>
		<path class="st1" d="M1107.1,733.9l-1-8.8h-0.4c-3.9,5.5-11.4,10.4-21.4,10.4c-14.2,0-21.4-10-21.4-20.1c0-16.9,15-26.2,42.1-26
			v-1.4c0-5.8-1.6-16.2-15.9-16.2c-6.5,0-13.3,2-18.2,5.2l-2.9-8.4c5.8-3.8,14.2-6.2,23-6.2c21.4,0,26.6,14.6,26.6,28.7v26.2
			c0,6.1,0.3,12,1.2,16.8H1107.1z M1105.2,698.1c-13.9-0.3-29.7,2.2-29.7,15.8c0,8.2,5.5,12.2,12,12.2c9.1,0,14.9-5.8,16.9-11.7
			c0.4-1.3,0.7-2.7,0.7-4V698.1z"/>
		<path class="st1" d="M1188,731.3c-3.3,1.7-10.7,4.1-20.1,4.1c-21.1,0-34.9-14.3-34.9-35.7c0-21.6,14.8-37.2,37.6-37.2
			c7.5,0,14.2,1.9,17.7,3.6l-2.9,9.8c-3-1.7-7.8-3.3-14.8-3.3c-16.1,0-24.7,11.9-24.7,26.5c0,16.2,10.4,26.2,24.3,26.2
			c7.2,0,12-1.9,15.6-3.5L1188,731.3z"/>
		<path class="st1" d="M1215.5,696h0.3c1.7-2.5,4.2-5.5,6.2-8l20.5-24.2h15.3l-27.1,28.8l30.8,41.2h-15.5l-24.2-33.6l-6.5,7.2v26.3
			h-12.6V631.2h12.6V696z"/>
		<path class="st1" d="M1316.8,643.7v20.1h18.2v9.7h-18.2v37.8c0,8.7,2.5,13.6,9.6,13.6c3.3,0,5.8-0.4,7.4-0.9l0.6,9.6
			c-2.5,1-6.4,1.7-11.3,1.7c-5.9,0-10.7-1.9-13.7-5.4c-3.6-3.8-4.9-10-4.9-18.2v-38.2h-10.9v-9.7h10.9v-16.8L1316.8,643.7z"/>
		<path class="st1" d="M1411.9,698.3c0,25.9-17.9,37.2-34.9,37.2c-19,0-33.6-13.9-33.6-36c0-23.4,15.3-37.2,34.7-37.2
			C1398.3,662.3,1411.9,676.9,1411.9,698.3z M1356.3,699c0,15.3,8.8,26.9,21.3,26.9c12.2,0,21.3-11.4,21.3-27.2
			c0-11.9-5.9-26.9-21-26.9C1362.8,671.8,1356.3,685.7,1356.3,699z"/>
		<path class="st1" d="M1471.6,636.4v97.5h-12.6v-97.5H1471.6z"/>
		<path class="st1" d="M1494.7,682.8c0-7.2-0.1-13.2-0.6-19h11.1l0.6,11.3h0.4c3.9-6.7,10.4-12.9,22-12.9c9.6,0,16.8,5.8,19.8,14
			h0.3c2.2-3.9,4.9-6.9,7.8-9.1c4.2-3.2,8.8-4.9,15.5-4.9c9.3,0,23,6.1,23,30.4v41.2h-12.4v-39.6c0-13.5-4.9-21.6-15.2-21.6
			c-7.2,0-12.9,5.4-15,11.6c-0.6,1.7-1,4.1-1,6.4v43.3h-12.4v-42c0-11.1-4.9-19.2-14.6-19.2c-8,0-13.7,6.4-15.8,12.7
			c-0.7,1.9-1,4-1,6.2v42.2h-12.4V682.8z"/>
		<path class="st1" d="M1615.3,686.7c0-9-0.3-16.2-0.6-22.9h11.4l0.6,12h0.3c5.2-8.5,13.5-13.6,24.9-13.6
			c16.9,0,29.7,14.3,29.7,35.6c0,25.2-15.3,37.6-31.8,37.6c-9.3,0-17.4-4-21.6-11h-0.3v38.1h-12.6V686.7z M1627.9,705.4
			c0,1.9,0.3,3.6,0.6,5.2c2.3,8.8,10,14.9,19.1,14.9c13.5,0,21.3-11,21.3-27.1c0-14-7.4-26-20.8-26c-8.7,0-16.8,6.2-19.2,15.8
			c-0.4,1.6-0.9,3.5-0.9,5.2V705.4z"/>
		<path class="st1" d="M1697.7,685.7c0-8.2-0.1-15.3-0.6-21.8h11.1l0.4,13.7h0.6c3.2-9.4,10.9-15.3,19.4-15.3c1.4,0,2.5,0.1,3.6,0.4
			v12c-1.3-0.3-2.6-0.4-4.3-0.4c-9,0-15.3,6.8-17.1,16.4c-0.3,1.7-0.6,3.8-0.6,5.9v37.3h-12.6V685.7z"/>
		<path class="st1" d="M1806.9,698.3c0,25.9-17.9,37.2-34.9,37.2c-19,0-33.6-13.9-33.6-36c0-23.4,15.3-37.2,34.7-37.2
			C1793.3,662.3,1806.9,676.9,1806.9,698.3z M1751.4,699c0,15.3,8.8,26.9,21.3,26.9c12.2,0,21.3-11.4,21.3-27.2
			c0-11.9-5.9-26.9-21-26.9C1757.9,671.8,1751.4,685.7,1751.4,699z"/>
		<path class="st1" d="M1826.9,663.9l13.7,39.4c2.3,6.4,4.2,12.2,5.6,17.9h0.4c1.6-5.8,3.6-11.6,5.9-17.9l13.6-39.4h13.3l-27.5,70
			h-12.2l-26.6-70H1826.9z"/>
		<path class="st1" d="M1897.3,701.2c0.3,17.2,11.3,24.3,24,24.3c9.1,0,14.6-1.6,19.4-3.6l2.2,9.1c-4.5,2-12.2,4.3-23.3,4.3
			c-21.6,0-34.4-14.2-34.4-35.3s12.4-37.8,32.8-37.8c22.9,0,28.9,20.1,28.9,33c0,2.6-0.3,4.6-0.4,5.9H1897.3z M1934.6,692.1
			c0.1-8.1-3.3-20.7-17.7-20.7c-12.9,0-18.5,11.9-19.5,20.7H1934.6z"/>
	</g>
	<g>
		<g>
			<path class="st2" d="M1037.6,534.1V280.2H951v-51.7h231.8v51.7h-86.4v253.9H1037.6z"/>
			<path d="M1096.5,539.5h-58.9c-3,0-5.4-2.4-5.4-5.4V285.6H951c-3,0-5.4-2.4-5.4-5.4v-51.7c0-3,2.4-5.4,5.4-5.4h231.8
				c3,0,5.4,2.4,5.4,5.4v51.7c0,3-2.4,5.4-5.4,5.4h-80.9v248.5C1101.9,537.1,1099.5,539.5,1096.5,539.5z M1043,528.7h48V280.2
				c0-3,2.4-5.4,5.4-5.4h80.9v-40.8H956.4v40.8h81.1c3,0,5.4,2.4,5.4,5.4V528.7z"/>
		</g>
		<g>
			<path class="st2" d="M1928.6,396.4c-8.1-13.1-19.4-23.5-33.8-31.1c-14.4-7.6-36.6-14.9-66.6-22c-30-7.1-48.9-13.9-56.7-20.4
				c-6.1-5.1-9.2-11.3-9.2-18.6c0-7.9,3.3-14.3,9.8-19c10.1-7.4,24.2-11.1,42.1-11.1c17.4,0,30.4,3.4,39.1,10.3
				c7.2,5.7,12.3,14.4,15.3,26.2h63.1c-2-25.8-12-46.5-30.2-62.3c-19.4-16.8-48.3-25.2-86.6-25.2c-23.5,0-43.5,3.5-60.1,10.6
				c-16.6,7.1-29.3,17.4-38.2,30.9c-8.8,13.6-13.2,28.1-13.2,43.7c0,24.2,9.4,44.7,28.1,61.5c13.4,11.9,36.5,22,69.6,30.2
				c25.7,6.4,42.1,10.9,49.4,13.4c10.6,3.8,18,8.2,22.2,13.2c4.2,5.1,6.4,11.2,6.4,18.5c0,11.3-5.1,21.1-15.1,29.5
				c-10.1,8.4-25.1,12.6-44.9,12.6c-18.7,0-33.6-4.7-44.7-14.2c-8.6-7.4-15.1-18.1-19.1-32.1h-62c4.7,31,16.8,54.9,36.2,71.6
				c20.7,17.8,50.4,26.8,89,26.8c26.5,0,48.7-3.7,66.5-11.1c17.8-7.4,31.5-18.8,41.3-34.1c9.7-15.3,14.6-31.7,14.6-49.2
				C1940.8,425.8,1936.7,409.6,1928.6,396.4z"/>
			<path d="M1818.4,544.9c-39.8,0-70.9-9.5-92.5-28.1c-20.4-17.6-33.2-42.8-38-74.9c-0.2-1.6,0.2-3.2,1.3-4.4c1-1.2,2.5-1.9,4.1-1.9
				h62c2.4,0,4.5,1.6,5.2,3.9c3.8,12.9,9.6,22.8,17.5,29.5c10,8.5,23.9,12.9,41.2,12.9c18.5,0,32.4-3.8,41.5-11.4
				c8.9-7.4,13.2-15.7,13.2-25.3c0-6-1.7-10.9-5.1-15c-3.6-4.3-10.3-8.2-19.9-11.6c-7-2.4-23.5-6.9-48.9-13.2
				c-33.7-8.3-58-18.9-71.9-31.4c-19.9-17.8-30-39.9-30-65.6c0-16.5,4.8-32.2,14.1-46.6c9.4-14.4,23.1-25.5,40.6-33
				c17.2-7.3,38.1-11.1,62.3-11.1c39.5,0,69.9,8.9,90.2,26.5c19.2,16.7,30,38.9,32.1,66c0.1,1.5-0.4,3-1.4,4.1c-1,1.1-2.5,1.7-4,1.7
				h-63.1c-2.5,0-4.6-1.7-5.3-4.1c-2.7-10.5-7.2-18.4-13.4-23.3c-7.7-6.1-19.7-9.2-35.7-9.2c-16.7,0-29.8,3.4-38.9,10
				c-5.2,3.7-7.6,8.3-7.6,14.6c0,5.6,2.4,10.3,7.2,14.4c4.9,4.1,18.4,10.8,54.5,19.3c30.3,7.2,53.1,14.7,67.9,22.5
				c15.2,8,27.3,19.1,35.9,33l0,0c8.6,13.9,13,31.3,13,51.5c0,18.5-5.2,36-15.4,52.1c-10.3,16.2-25,28.3-43.8,36.2
				C1868.6,541,1845.5,544.9,1818.4,544.9z M1699.6,446.5c5.1,26.5,16.3,47.4,33.3,62.1c19.6,16.9,48.4,25.5,85.5,25.5
				c25.7,0,47.3-3.6,64.4-10.7c16.7-7,29.7-17.7,38.8-32c9.1-14.3,13.7-29.9,13.7-46.3c0-18.2-3.8-33.6-11.4-45.8
				c-7.6-12.2-18.2-22-31.7-29.1c-13.9-7.3-35.9-14.6-65.3-21.5c-31-7.3-50.3-14.3-59-21.5c-7.4-6.2-11.1-13.8-11.1-22.7
				c0-9.8,4.1-17.6,12.1-23.4c11-8,26.2-12.1,45.3-12.1c18.6,0,32.8,3.9,42.5,11.5c7.2,5.7,12.6,14.1,16,25h53
				c-2.8-21.7-11.9-39.1-27.8-52.8c-18.3-15.9-46.2-23.9-83.1-23.9c-22.6,0-42.1,3.4-58,10.2c-15.5,6.6-27.5,16.3-35.8,28.9
				c-8.2,12.6-12.4,26.3-12.4,40.7c0,22.8,8.6,41.6,26.3,57.5c12.7,11.3,35.3,21.1,67.3,29c26.1,6.5,42.4,10.9,49.9,13.5
				c11.7,4.2,19.7,9,24.6,14.9c5.1,6.1,7.6,13.4,7.6,21.9c0,12.9-5.7,24.2-17.1,33.7c-11,9.2-27.3,13.9-48.4,13.9
				c-20,0-36.2-5.2-48.2-15.5c-8.6-7.4-15.2-17.8-19.6-30.8H1699.6z"/>
		</g>
		<g>
			<path class="st2" d="M2932.6,396.4c-8.1-13.1-19.4-23.5-33.8-31.1c-14.4-7.6-36.6-14.9-66.6-22c-30-7.1-48.9-13.9-56.7-20.4
				c-6.1-5.1-9.2-11.3-9.2-18.6c0-7.9,3.3-14.3,9.8-19c10.1-7.4,24.2-11.1,42.1-11.1c17.4,0,30.4,3.4,39.1,10.3
				c7.2,5.7,12.3,14.4,15.3,26.2h63.1c-2-25.8-12-46.5-30.2-62.3c-19.4-16.8-48.3-25.2-86.6-25.2c-23.5,0-43.5,3.5-60.1,10.6
				c-16.6,7.1-29.3,17.4-38.2,30.9c-8.8,13.6-13.2,28.1-13.2,43.7c0,24.2,9.4,44.7,28.1,61.5c13.4,11.9,36.5,22,69.6,30.2
				c25.7,6.4,42.1,10.9,49.4,13.4c10.6,3.8,18,8.2,22.2,13.2c4.2,5.1,6.4,11.2,6.4,18.5c0,11.3-5.1,21.1-15.1,29.5
				c-10.1,8.4-25.1,12.6-44.9,12.6c-18.7,0-33.6-4.7-44.7-14.2c-8.6-7.4-15.1-18.1-19.1-32.1h-62c4.7,31,16.8,54.9,36.2,71.6
				c20.7,17.8,50.4,26.8,89,26.8c26.5,0,48.7-3.7,66.5-11.1c17.8-7.4,31.5-18.8,41.3-34.1c9.7-15.3,14.6-31.7,14.6-49.2
				C2944.7,425.8,2940.7,409.6,2932.6,396.4z"/>
			<path d="M2822.4,544.9c-39.8,0-70.9-9.5-92.5-28.1c-20.4-17.6-33.2-42.8-38-74.9c-0.2-1.6,0.2-3.2,1.3-4.4c1-1.2,2.5-1.9,4.1-1.9
				h62c2.4,0,4.5,1.6,5.2,3.9c3.8,12.9,9.6,22.8,17.5,29.5c10,8.5,23.9,12.9,41.2,12.9c18.5,0,32.4-3.8,41.5-11.4
				c8.9-7.4,13.2-15.7,13.2-25.3c0-6-1.7-10.9-5.1-15c-3.6-4.3-10.3-8.2-19.9-11.6c-7-2.4-23.5-6.9-48.9-13.2
				c-33.7-8.3-58-18.9-71.9-31.4c-19.9-17.8-30-39.9-30-65.6c0-16.5,4.8-32.2,14.1-46.6c9.4-14.4,23.1-25.5,40.6-33
				c17.2-7.3,38.1-11.1,62.3-11.1c39.5,0,69.9,8.9,90.2,26.5c19.2,16.7,30,38.9,32.1,66c0.1,1.5-0.4,3-1.4,4.1c-1,1.1-2.5,1.7-4,1.7
				h-63.1c-2.5,0-4.6-1.7-5.3-4.1c-2.7-10.5-7.3-18.4-13.4-23.3c-7.7-6.1-19.7-9.2-35.7-9.2c-16.7,0-29.8,3.4-38.9,10
				c-5.2,3.7-7.6,8.3-7.6,14.6c0,5.6,2.4,10.3,7.2,14.4c4.9,4.1,18.4,10.8,54.5,19.3c30.3,7.2,53.1,14.7,67.9,22.5
				c15.2,8,27.3,19.1,35.9,33l0,0c8.6,13.9,13,31.3,13,51.5c0,18.5-5.2,36-15.4,52.1c-10.3,16.2-25,28.3-43.8,36.2
				C2872.6,541,2849.5,544.9,2822.4,544.9z M2703.6,446.5c5.1,26.5,16.3,47.4,33.3,62.1c19.6,16.9,48.3,25.5,85.5,25.5
				c25.7,0,47.3-3.6,64.4-10.7c16.7-7,29.7-17.7,38.8-32c9.1-14.3,13.7-29.9,13.7-46.3c0-18.2-3.8-33.6-11.4-45.8
				c-7.6-12.2-18.2-22-31.7-29.1c-13.9-7.3-35.9-14.6-65.3-21.5c-31-7.3-50.3-14.3-59-21.5c-7.4-6.2-11.1-13.8-11.1-22.7
				c0-9.8,4.1-17.6,12.1-23.4c11-8,26.2-12.1,45.3-12.1c18.6,0,32.8,3.9,42.5,11.5c7.2,5.7,12.6,14.1,16.1,25h53
				c-2.8-21.7-11.9-39.1-27.8-52.8c-18.3-15.9-46.2-23.9-83.1-23.9c-22.6,0-42.1,3.4-58,10.2c-15.5,6.6-27.5,16.3-35.8,28.9
				c-8.2,12.6-12.4,26.3-12.4,40.7c0,22.8,8.6,41.6,26.3,57.5c12.7,11.3,35.3,21.1,67.3,29c26.1,6.5,42.4,10.9,49.9,13.5
				c11.7,4.2,19.7,9,24.6,14.9c5.1,6.1,7.6,13.4,7.6,21.9c0,12.9-5.7,24.2-17.1,33.7c-11,9.2-27.3,13.9-48.4,13.9
				c-20,0-36.2-5.2-48.2-15.5c-8.6-7.4-15.2-17.7-19.6-30.8H2703.6z"/>
		</g>
		<g>
			<path class="st2" d="M2041.6,534.1V280.2h-88.9v-51.7h238v51.7H2102v253.9H2041.6z"/>
			<path d="M2102,539.5h-60.5c-3,0-5.4-2.4-5.4-5.4V285.6h-83.4c-3,0-5.4-2.4-5.4-5.4v-51.7c0-3,2.4-5.4,5.4-5.4h238
				c3,0,5.4,2.4,5.4,5.4v51.7c0,3-2.4,5.4-5.4,5.4h-83.2v248.5C2107.5,537.1,2105,539.5,2102,539.5z M2047,528.7h49.6V280.2
				c0-3,2.4-5.4,5.4-5.4h83.2v-40.8h-227.2v40.8h83.4c3,0,5.4,2.4,5.4,5.4V528.7z"/>
		</g>
		<g>
			<path class="st2" d="M2537.2,534.1V280.2h-88.9v-51.7h238v51.7h-88.7v253.9H2537.2z"/>
			<path d="M2597.6,539.5h-60.5c-3,0-5.4-2.4-5.4-5.4V285.6h-83.4c-3,0-5.4-2.4-5.4-5.4v-51.7c0-3,2.4-5.4,5.4-5.4h238
				c3,0,5.4,2.4,5.4,5.4v51.7c0,3-2.4,5.4-5.4,5.4h-83.2v248.5C2603.1,537.1,2600.6,539.5,2597.6,539.5z M2542.6,528.7h49.6V280.2
				c0-3,2.4-5.4,5.4-5.4h83.2v-40.8h-227.2v40.8h83.4c3,0,5.4,2.4,5.4,5.4V528.7z"/>
		</g>
		<g>
			<path class="st2" d="M2459.9,534.1h-64.5l-25.6-69.4h-117.4l-24.2,69.4h-62.9l114.4-305.6h62.7L2459.9,534.1z M2350.7,413.2
				l-40.5-113.4l-39.7,113.4H2350.7z"/>
			<path d="M2459.9,539.5h-64.5c-2.3,0-4.3-1.4-5.1-3.5l-24.3-65.9h-109.7l-23,65.8c-0.8,2.2-2.8,3.6-5.1,3.6h-62.9
				c-1.8,0-3.4-0.9-4.5-2.3c-1-1.5-1.2-3.3-0.6-5l114.4-305.6c0.8-2.1,2.8-3.5,5.1-3.5h62.7c2.2,0,4.3,1.4,5.1,3.5L2465,532.1
				c0.6,1.7,0.4,3.5-0.6,5C2463.4,538.6,2461.7,539.5,2459.9,539.5z M2399.2,528.7h52.8l-113.4-294.7h-55.2l-110.3,294.7h51.2
				l23-65.8c0.8-2.2,2.8-3.6,5.1-3.6h117.4c2.3,0,4.3,1.4,5.1,3.5L2399.2,528.7z M2350.7,418.6h-80.1c-1.8,0-3.4-0.9-4.4-2.3
				c-1-1.4-1.3-3.3-0.7-4.9l39.7-113.4c0.8-2.2,2.8-3.6,5.1-3.6c0,0,0,0,0,0c2.3,0,4.3,1.4,5.1,3.6l40.5,113.4
				c0.6,1.7,0.3,3.5-0.7,4.9C2354.1,417.8,2352.5,418.6,2350.7,418.6z M2278.2,407.8h64.8l-32.7-91.7L2278.2,407.8z"/>
		</g>
		<g>
			<polygon class="st2" points="1220.9,228.5 1220.9,534.1 1286,534.1 1286,318.2 1289.7,318.2 1363.8,439.9 1399.4,439.9 
				1471.3,314.8 1476.2,314.8 1476.2,534.1 1541,534.1 1541,228.5 1464.5,228.5 1385.6,364.6 1298.3,228.5 			"/>
			<path d="M1541,539.5h-64.8c-3,0-5.4-2.4-5.4-5.4V326.6l-66.7,116c-1,1.7-2.8,2.7-4.7,2.7h-35.6c-1.9,0-3.7-1-4.6-2.6l-67.7-111.2
				v202.6c0,3-2.4,5.4-5.4,5.4h-65.1c-3,0-5.4-2.4-5.4-5.4V228.5c0-3,2.4-5.4,5.4-5.4h77.4c1.8,0,3.6,0.9,4.6,2.5l82.4,128.6
				l74.5-128.4c1-1.7,2.8-2.7,4.7-2.7h76.5c3,0,5.4,2.4,5.4,5.4v305.6C1546.4,537.1,1544,539.5,1541,539.5z M1481.6,528.7h54V233.9
				h-67.9l-77.4,133.4c-0.9,1.6-2.7,2.7-4.6,2.7c-2,0.1-3.7-0.9-4.7-2.5l-85.6-133.6h-69v294.7h54.3V318.2c0-3,2.4-5.4,5.4-5.4h3.7
				c1.9,0,3.7,1,4.6,2.6l72.4,119h29.4l70.3-122.3c1-1.7,2.8-2.7,4.7-2.7h4.9c3,0,5.4,2.4,5.4,5.4V528.7z"/>
		</g>
	</g>
</g>
</svg>
